<?xml version="1.0" encoding="utf-8"?>
<!-- Generator: Adobe Illustrator 19.1.0, SVG Export Plug-In . SVG Version: 6.00 Build 0)  -->
<svg version="1.1" id="Layer_1" xmlns="http://www.w3.org/2000/svg" xmlns:xlink="http://www.w3.org/1999/xlink" x="0px" y="0px"
	 viewBox="0 0 876 354" style="enable-background:new 0 0 876 354;" xml:space="preserve">
<style type="text/css">
	.st0{fill:#6356AB;}
</style>
<g>
	<path class="st0" d="M260,177.8c0.8-0.9,1.7-1.8,2.6-2.7c2.9-3.1,6.1-6.4,9.1-9.6c12.1-12.6,18.8-29,18.8-46.2
		c0-1.2,0.2-6.1,0.2-6.8c-1.4-39.4-34.9-71.5-74.5-71.5H91.5v49.8H41.3v224.5h176.9c39.3,0,72.5-34.6,72.5-75.6
		C290.8,210.4,272.5,189.7,260,177.8z M116.5,115.8l99.3,0.1l-62.4,62.6l61.7,62h-98.6V115.8z M218.2,290.2H66.3V115.7l25.2,0v149.7
		h123.6c10.2,0,19.3-6.1,23.2-15.5c3.9-9.4,1.8-20.1-5.4-27.3l-44.1-44.2l44.8-44.9c7.2-7.2,9.3-17.9,5.4-27.3
		c-3.9-9.4-13-15.5-23.2-15.5h-99.2V65.9h99.7c26.4,0,48.6,21.3,49.5,47.2c0,1.1-0.2,5.4-0.2,5.5l0,0.5c0,14.6-7.4,24.5-11.9,29.1
		c-3.1,3.2-6.3,6.6-9.2,9.6c-4.9,5.1-9.1,9.5-11.1,11.5l-9,8.8l8.9,8.9c1.2,1.2,2.7,2.6,4.5,4.3c10.4,9.6,27.9,25.6,27.9,48.2
		C265.8,266.5,243.6,290.2,218.2,290.2z"/>
	<g>
		<path class="st0" d="M374.1,120c3.7-0.9,8.1-1.7,13.2-2.4c5.1-0.7,10.4-1,15.8-1c5,0,9.9,0.4,14.6,1.2c4.8,0.8,9,2.3,12.8,4.4
			c3.8,2.1,6.8,4.9,9,8.4c2.3,3.5,3.4,8,3.4,13.3c0,3.9-0.7,7.6-2.1,11c-1.4,3.4-3.2,6.4-5.5,9c-2.3,2.6-4.9,4.9-7.9,6.8
			c-3,1.9-6.2,3.4-9.4,4.4c2.7,0.7,5.1,1.8,7.2,3.3c2.1,1.5,3.9,3.3,5.4,5.3c1.4,2,2.6,4.3,3.4,6.8c0.8,2.5,1.2,5,1.2,7.6
			c0,8.2-1.7,15-5,20.4c-3.4,5.3-7.8,9.6-13.2,12.7c-5.5,3.1-11.7,5.3-18.7,6.5c-7,1.2-14.2,1.8-21.7,1.8c-5.6,0-10.9-0.3-16.1-1
			c-5.2-0.6-9.9-1.4-14.4-2.3L374.1,120z M359.8,228.1c2.4,0.5,5.1,0.8,8,1c2.9,0.2,6,0.3,9.2,0.3c5.7,0,11.3-0.4,16.8-1.2
			c5.5-0.8,10.4-2.3,14.7-4.6s7.7-5.4,10.4-9.3c2.6-3.9,3.9-9.1,3.9-15.5c0-6.8-2.3-11.6-7-14.2c-4.6-2.6-12.2-3.9-22.8-3.9h-22.1
			L359.8,228.1z M389.7,170.4c14.6,0,25.1-2.2,31.4-6.7c6.3-4.5,9.5-10.4,9.5-17.8c0-7-2.5-11.9-7.4-14.8
			c-4.9-2.9-12.4-4.4-22.5-4.4c-3.1,0-6.2,0.1-9.1,0.3c-2.9,0.2-5.5,0.5-7.7,0.9l-10.4,42.5H389.7z"/>
		<path class="st0" d="M471.9,148.3h11.3l-21.8,90h-11.3L471.9,148.3z M476.4,122c0-3,0.8-5.3,2.5-6.9c1.7-1.6,3.5-2.3,5.5-2.3
			c2.3,0,4.1,0.7,5.4,2.2c1.3,1.5,1.9,3.3,1.9,5.7c0,2.8-0.9,4.9-2.8,6.4c-1.9,1.5-3.7,2.3-5.6,2.3c-2.3,0-4.1-0.7-5.2-2
			C477,126,476.4,124.2,476.4,122z"/>
		<path class="st0" d="M514.4,121.9l11.8-2.1l-6.7,28.5h31.7l-2.3,9.7h-32l-10.6,44c-0.6,2.1-1.1,4.3-1.5,6.7
			c-0.4,2.4-0.6,4.7-0.6,7c0,5.2,1.3,8.9,3.8,11c2.6,2.1,5.8,3.1,9.6,3.1c3.7,0,7-0.4,9.7-1.2c2.7-0.8,5.6-1.9,8.7-3.3l1.1,10.3
			c-3.1,1.3-6.7,2.4-10.6,3.3c-3.9,0.9-7.8,1.4-11.6,1.4c-3,0-5.9-0.3-8.6-1c-2.7-0.7-5-1.9-7.1-3.5c-2-1.6-3.7-3.8-4.9-6.4
			c-1.2-2.7-1.8-6-1.8-10.1c0-5,0.8-10.7,2.4-17.2L514.4,121.9z"/>
		<path class="st0" d="M589,239.7c-5.9,0-12.2-0.3-18.7-0.8s-12.4-1.4-17.5-2.5l28-116.8c5.2-1.2,10.7-2,16.5-2.4
			c5.8-0.5,11.7-0.7,17.6-0.7c4.9,0,9.8,0.3,14.9,1c5,0.7,9.6,2.1,13.7,4.1c4.1,2,7.4,4.8,10,8.4c2.6,3.5,3.9,8.1,3.9,13.7
			c0,6.2-1.7,12-5.1,17.4c-3.4,5.5-9.2,9.9-17.3,13.2c5.1,2.1,9.1,5.1,11.8,9.1c2.8,3.9,4.2,8.5,4.2,13.8c0,13.6-5.3,24.1-15.9,31.5
			C624.5,236,609.1,239.7,589,239.7z M587.2,183.8l-9,37.1c1.6,0.2,3.8,0.4,6.4,0.6c2.7,0.2,5.6,0.3,8.9,0.3c3.8,0,7.8-0.3,12-0.9
			c4.2-0.6,8-1.7,11.3-3.3c3.4-1.6,6.2-3.9,8.5-7c2.3-3,3.4-6.9,3.4-11.7c0-4.4-1.7-8-5-10.9c-3.4-2.8-8.9-4.3-16.7-4.3H587.2z
			 M591.2,167H608c3.6,0,7.1-0.3,10.5-1c3.4-0.7,6.3-1.8,8.8-3.4c2.5-1.6,4.5-3.5,6-5.8c1.5-2.3,2.3-5.2,2.3-8.5c0-5.3-2-9-6-11
			c-4-2-9.4-3-16.1-3c-2.7,0-5.3,0.1-8,0.3c-2.7,0.2-4.8,0.4-6.4,0.6L591.2,167z"/>
		<path class="st0" d="M741.3,203c-0.4,1.3-0.7,3.4-1,6.3c-0.3,2.9-0.5,5.6-0.5,8.2c0,3.4,0.3,6.6,0.9,9.8c0.6,3.2,1.5,6.4,2.8,9.7
			l-18.8,2.8c-1.4-2.8-2.5-5.7-3.3-8.9c-2.9,2.6-6.5,4.8-10.7,6.9c-4.2,2-9,3-14.4,3c-5.5,0-10.1-0.9-14-2.7
			c-3.9-1.8-7.1-4.3-9.5-7.5c-2.4-3.2-4.2-6.9-5.4-11.2c-1.2-4.3-1.7-8.9-1.7-13.9c0-8.5,1.5-16.4,4.5-23.7c3-7.3,7.2-13.6,12.6-19
			c5.4-5.3,11.8-9.5,19.2-12.6c7.4-3.1,15.5-4.6,24.4-4.6c4.5,0,9.1,0.4,13.7,1.1c4.6,0.8,9.2,2.2,13.8,4.3L741.3,203z M729.9,163.6
			c-2.2-0.5-4.7-0.7-7.5-0.7c-5.2,0-10,1.1-14.5,3.4c-4.4,2.3-8.2,5.3-11.4,9.1c-3.2,3.8-5.7,8.1-7.4,13c-1.7,4.9-2.6,10-2.6,15.3
			c0,2.7,0.2,5.2,0.7,7.5c0.5,2.3,1.2,4.4,2.4,6.1c1.1,1.7,2.6,3.1,4.4,4.2c1.9,1,4.2,1.6,7.1,1.6c3.7,0,7-0.8,9.8-2.3
			c2.8-1.6,5.5-3.7,7.9-6.4c0.1-3,0.4-5.9,0.8-8.5c0.4-2.7,1-5.3,1.7-8L729.9,163.6z"/>
		<path class="st0" d="M847.9,147.3c-2.3,6.6-4.9,13.5-7.7,20.6c-2.8,7.1-5.9,14.3-9.3,21.5c-3.4,7.2-7.1,14.4-11.1,21.5
			c-4,7.1-8.2,14.1-12.7,20.8c-3.4,5.1-6.9,10-10.5,14.7c-3.6,4.7-7.5,8.8-11.8,12.4c-4.2,3.6-8.9,6.5-14,8.7
			c-5.1,2.2-10.9,3.3-17.4,3.3c-3.6,0-6.8-0.4-9.7-1.2c-2.8-0.8-5.3-1.7-7.2-2.8l6.8-16.9c1.6,0.9,3.5,1.7,5.5,2.3
			c2,0.6,4.3,0.9,6.7,0.9c5.5,0,10.2-1.4,14.4-4.3c4.1-2.8,7.9-6.7,11.2-11.6c-3.7-12.9-6.9-26.9-9.4-42c-2.6-15.1-4.2-31.1-5.1-48
			h21.2c0.1,4.9,0.4,10.3,0.8,16.2c0.4,5.9,0.9,12,1.6,18.2c0.6,6.2,1.4,12.3,2.4,18.4c0.9,6,2,11.6,3.2,16.7
			c3.5-5.6,6.8-11.4,9.8-17.6c3-6.1,5.8-12.3,8.4-18.4c2.6-6.1,4.8-12,6.7-17.8s3.6-11,5-15.8H847.9z"/>
	</g>
</g>
</svg>
