<?xml version="1.0" encoding="UTF-8"?>
<svg version="1.1" xmlns="http://www.w3.org/2000/svg" width="310" height="310">
<path d="M0 0 C0.74883453 -0.00570007 1.49766907 -0.01140015 2.26919556 -0.01727295 C3.85083631 -0.02667245 5.43249621 -0.0332367 7.01416016 -0.03710938 C9.37309514 -0.0467083 11.73111653 -0.07773414 14.08984375 -0.109375 C50.63731035 -0.36510057 87.21045768 14.26787392 113.875 39.1953125 C115.73031328 40.91666815 117.62627124 42.49969591 119.6015625 44.078125 C124.41604615 48.182275 128.1620596 53.23612296 132.0390625 58.203125 C132.78414063 59.13253906 133.52921875 60.06195313 134.296875 61.01953125 C152.46901232 84.28873148 165.0610164 115.40864131 165.2421875 145.1640625 C165.24788757 145.91289703 165.25358765 146.66173157 165.25946045 147.43325806 C165.26885995 149.01489881 165.2754242 150.59655871 165.27929688 152.17822266 C165.2888958 154.53715764 165.31992164 156.89517903 165.3515625 159.25390625 C165.60728807 195.80137285 150.97431358 232.37452018 126.046875 259.0390625 C124.32551935 260.89437578 122.74249159 262.79033374 121.1640625 264.765625 C117.0599125 269.58010865 112.00606454 273.3261221 107.0390625 277.203125 C106.10964844 277.94820313 105.18023437 278.69328125 104.22265625 279.4609375 C80.95345602 297.63307482 49.83354619 310.2250789 20.078125 310.40625 C19.32929047 310.41195007 18.58045593 310.41765015 17.80892944 310.42352295 C16.22728869 310.43292245 14.64562879 310.4394867 13.06396484 310.44335938 C10.70502986 310.4529583 8.34700847 310.48398414 5.98828125 310.515625 C-30.55918535 310.77135057 -67.13233268 296.13837608 -93.796875 271.2109375 C-95.65218828 269.48958185 -97.54814624 267.90655409 -99.5234375 266.328125 C-104.33792115 262.223975 -108.0839346 257.17012704 -111.9609375 252.203125 C-113.07855469 250.80900391 -113.07855469 250.80900391 -114.21875 249.38671875 C-132.39088732 226.11751852 -144.9828914 194.99760869 -145.1640625 165.2421875 C-145.16976257 164.49335297 -145.17546265 163.74451843 -145.18133545 162.97299194 C-145.19073495 161.39135119 -145.1972992 159.80969129 -145.20117188 158.22802734 C-145.2107708 155.86909236 -145.24179664 153.51107097 -145.2734375 151.15234375 C-145.52916307 114.60487715 -130.89618858 78.03172982 -105.96875 51.3671875 C-104.24739435 49.51187422 -102.66436659 47.61591626 -101.0859375 45.640625 C-96.9817875 40.82614135 -91.92793954 37.0801279 -86.9609375 33.203125 C-85.56681641 32.08550781 -85.56681641 32.08550781 -84.14453125 30.9453125 C-60.87533102 12.77317518 -29.75542119 0.1811711 0 0 Z " fill="#0387C0" transform="translate(144.9609375,-0.203125)"/>
<path d="M0 0 C0.74883453 -0.00570007 1.49766907 -0.01140015 2.26919556 -0.01727295 C3.85083631 -0.02667245 5.43249621 -0.0332367 7.01416016 -0.03710938 C9.37309514 -0.0467083 11.73111653 -0.07773414 14.08984375 -0.109375 C50.63731035 -0.36510057 87.21045768 14.26787392 113.875 39.1953125 C115.73031328 40.91666815 117.62627124 42.49969591 119.6015625 44.078125 C124.41604615 48.182275 128.1620596 53.23612296 132.0390625 58.203125 C132.78414063 59.13253906 133.52921875 60.06195313 134.296875 61.01953125 C152.46901232 84.28873148 165.0610164 115.40864131 165.2421875 145.1640625 C165.24788757 145.91289703 165.25358765 146.66173157 165.25946045 147.43325806 C165.26885995 149.01489881 165.2754242 150.59655871 165.27929688 152.17822266 C165.2888958 154.53715764 165.31992164 156.89517903 165.3515625 159.25390625 C165.60728807 195.80137285 150.97431358 232.37452018 126.046875 259.0390625 C124.32551935 260.89437578 122.74249159 262.79033374 121.1640625 264.765625 C117.0599125 269.58010865 112.00606454 273.3261221 107.0390625 277.203125 C106.10964844 277.94820313 105.18023437 278.69328125 104.22265625 279.4609375 C80.95345602 297.63307482 49.83354619 310.2250789 20.078125 310.40625 C19.32929047 310.41195007 18.58045593 310.41765015 17.80892944 310.42352295 C16.22728869 310.43292245 14.64562879 310.4394867 13.06396484 310.44335938 C10.70502986 310.4529583 8.34700847 310.48398414 5.98828125 310.515625 C-30.55918535 310.77135057 -67.13233268 296.13837608 -93.796875 271.2109375 C-95.65218828 269.48958185 -97.54814624 267.90655409 -99.5234375 266.328125 C-104.33792115 262.223975 -108.0839346 257.17012704 -111.9609375 252.203125 C-113.07855469 250.80900391 -113.07855469 250.80900391 -114.21875 249.38671875 C-132.39088732 226.11751852 -144.9828914 194.99760869 -145.1640625 165.2421875 C-145.16976257 164.49335297 -145.17546265 163.74451843 -145.18133545 162.97299194 C-145.19073495 161.39135119 -145.1972992 159.80969129 -145.20117188 158.22802734 C-145.2107708 155.86909236 -145.24179664 153.51107097 -145.2734375 151.15234375 C-145.52916307 114.60487715 -130.89618858 78.03172982 -105.96875 51.3671875 C-104.24739435 49.51187422 -102.66436659 47.61591626 -101.0859375 45.640625 C-96.9817875 40.82614135 -91.92793954 37.0801279 -86.9609375 33.203125 C-85.56681641 32.08550781 -85.56681641 32.08550781 -84.14453125 30.9453125 C-60.87533102 12.77317518 -29.75542119 0.1811711 0 0 Z M-41.9609375 33.203125 C-41.9609375 46.733125 -41.9609375 60.263125 -41.9609375 74.203125 C-55.4909375 74.203125 -69.0209375 74.203125 -82.9609375 74.203125 C-82.9609375 135.253125 -82.9609375 196.303125 -82.9609375 259.203125 C-45.8978125 259.265 -45.8978125 259.265 -8.0859375 259.328125 C3.60239502 259.35543701 3.60239502 259.35543701 15.52685547 259.38330078 C22.53211887 259.38999103 22.53211887 259.38999103 29.53738403 259.39401245 C32.64947379 259.39587031 35.76149481 259.40334363 38.87356567 259.41427612 C42.85188843 259.42806506 46.83011223 259.43209426 50.80845666 259.42926955 C52.26307551 259.42985962 53.71769807 259.43378343 55.17229629 259.44155526 C74.77149993 259.54134867 90.27387889 254.62458247 104.7265625 240.953125 C118.26234376 226.86730316 122.71343225 210.42443061 122.3515625 191.41796875 C121.65925187 175.37655451 113.21477952 162.98750316 103.0390625 151.203125 C102.01571263 149.9760527 100.99431843 148.74734098 99.9765625 147.515625 C99.0175 146.3709375 99.0175 146.3709375 98.0390625 145.203125 C98.75191406 144.53667969 99.46476563 143.87023437 100.19921875 143.18359375 C112.92198108 131.04824122 121.94407827 116.420303 122.38256836 98.43457031 C122.57751527 79.59272438 118.04298004 65.34897017 104.7890625 51.453125 C91.23418419 38.50683306 75.79352249 33.02343121 57.26025391 33.08959961 C55.64960052 33.08938057 55.64960052 33.08938057 54.00640869 33.0891571 C50.46779337 33.08985211 46.9292311 33.09762524 43.390625 33.10546875 C40.93297352 33.10733439 38.47532166 33.10875761 36.01766968 33.10975647 C29.55685393 33.11357012 23.09606075 33.12339059 16.63525391 33.13446045 C10.03939113 33.14469932 3.44352469 33.1492594 -3.15234375 33.15429688 C-16.08855316 33.16501388 -29.02473992 33.18260138 -41.9609375 33.203125 Z " fill="#FEFEFE" transform="translate(144.9609375,-0.203125)"/>
<path d="M0 0 C10.87536777 -0.06801465 21.75059224 -0.1229533 32.62612534 -0.15543652 C37.67710071 -0.17103372 42.72792192 -0.19216233 47.77880859 -0.22631836 C52.66122179 -0.25912517 57.54348751 -0.27689763 62.4260025 -0.28463173 C64.28055388 -0.29013721 66.13509799 -0.30088712 67.98958588 -0.31719017 C84.24067677 -0.45425947 98.10043415 0.77637418 110.75 12.125 C119.77057963 21.65859837 121.48090871 32.73125451 121.265625 45.18359375 C120.81223852 56.6671622 115.83736671 63.01501166 108 71 C106.88621595 72.28338299 105.78141283 73.57463793 104.6875 74.875 C99.76816923 80.54039041 94.34155037 85.7373888 89 91 C90.52416293 94.65009221 92.68938953 96.85526532 95.54296875 99.5625 C96.45240234 100.44292969 97.36183594 101.32335937 98.29882812 102.23046875 C100.1964945 104.05508607 102.10456992 105.86707094 104.01757812 107.67578125 C113.08956513 116.49878339 121.04744085 126.76745835 121.43139648 139.91210938 C121.46499485 151.74948415 118.8544797 161.77827816 111 171.00390625 C101.62867754 180.35692534 90.45845658 184.43192068 77.32723618 184.497715 C76.16189472 184.48332256 74.99655327 184.46893013 73.79589844 184.45410156 C72.51578007 184.4545837 71.2356617 184.45506584 69.91675186 184.45556259 C66.49243246 184.45645584 63.06868626 184.43348319 59.64450073 184.40512085 C56.41682617 184.38213068 53.18917232 184.38125707 49.96142578 184.37841797 C40.55754296 184.35753174 31.15376398 184.30168663 21.75 184.25 C0.7125 184.1675 -20.325 184.085 -42 184 C-42 136.81 -42 89.62 -42 41 C-35.4 41 -28.8 41 -22 41 C-22 81.59 -22 122.18 -22 164 C3.9565625 163.87625 3.9565625 163.87625 30.4375 163.75 C38.61551392 163.72631348 38.61551392 163.72631348 46.95874023 163.70214844 C51.87106018 163.66890436 51.87106018 163.66890436 56.78334045 163.63043213 C58.96124194 163.61587446 61.13920387 163.60904878 63.31715393 163.60845947 C66.62777132 163.60603172 69.9373639 163.5786143 73.24780273 163.54589844 C74.20846618 163.55092251 75.16912962 163.55594658 76.15890408 163.56112289 C83.33268773 163.45057429 89.76915725 161.99672371 95.15625 157 C95.5996875 156.34 96.043125 155.68 96.5 155 C96.9640625 154.34 97.428125 153.68 97.90625 153 C99.72211008 149.67957014 100.18429586 146.50165801 100.3125 142.75 C100.36857422 141.69039063 100.36857422 141.69039063 100.42578125 140.609375 C99.05360453 132.2000718 93.37696342 126.85659272 87.515625 121.1953125 C86.70003113 120.39012177 85.88443726 119.58493103 85.04412842 118.75534058 C82.45547679 116.20212657 79.85376508 113.66279212 77.25 111.125 C74.6338136 108.5640074 72.02060164 106.00014842 69.4130249 103.4303894 C67.79366351 101.83559789 66.16898709 100.24618246 64.53863525 98.66262817 C63.8107782 97.94783295 63.08292114 97.23303772 62.33300781 96.49658203 C61.68777161 95.86785187 61.0425354 95.2391217 60.37774658 94.59133911 C59 93 59 93 59 91 C60.62532015 89.26822128 62.2813471 87.63586856 64 86 C65.22093925 84.79884896 66.43977653 83.59555914 67.65698242 82.390625 C68.33085495 81.72643555 69.00472748 81.06224609 69.69902039 80.37792969 C72.73600209 77.38111157 75.7650389 74.37631678 78.79370117 71.37109375 C80.39228045 69.78767692 81.99353094 68.20695244 83.59741211 66.62890625 C85.91970063 64.34298892 88.23217934 62.04753368 90.54296875 59.75 C91.61951973 58.6966748 91.61951973 58.6966748 92.71781921 57.62207031 C98.0983541 52.24337041 100.27949788 48.44819256 100.4375 40.6875 C100.32705634 34.58548787 99.35114826 30.39444327 95 26 C92.71461656 24.32274435 90.58981031 23.22160864 88 22 C87.34 21.67 86.68 21.34 86 21 C83.28522685 20.8774671 80.59442994 20.81429183 77.87841797 20.79467773 C76.61976929 20.77982834 76.61976929 20.77982834 75.33569336 20.76467896 C72.55455371 20.73302208 69.77339696 20.70829 66.9921875 20.68359375 C65.06690012 20.66302784 63.14161729 20.64203146 61.21633911 20.62062073 C56.14304282 20.56536259 51.06970553 20.51596983 45.99633789 20.46777344 C40.82174012 20.41758571 35.64720206 20.36188542 30.47265625 20.30664062 C20.31515323 20.19901328 10.15759963 20.09808773 0 20 C0 13.4 0 6.8 0 0 Z " fill="#FBFDFE" transform="translate(125,54)"/>
<path d="M0 0 C26.4 0 52.8 0 80 0 C76.45461748 4.1362796 73.10132731 8.023243 69.27978516 11.83374023 C68.39932526 12.7141246 67.51886536 13.59450897 66.61172485 14.50157166 C65.68024628 15.42788895 64.7487677 16.35420624 63.7890625 17.30859375 C62.81092733 18.28485986 61.83301565 19.26134994 60.85531616 20.23805237 C58.30285601 22.78672577 55.74740552 25.33237958 53.19128418 27.87738037 C50.57490086 30.48346618 47.96140697 33.09244621 45.34765625 35.70117188 C40.23456754 40.80359118 35.11831088 45.90281857 30 51 C34.99623584 57.03964295 40.42683329 62.54010611 45.9921875 68.0546875 C46.94797639 69.00606286 47.90346649 69.95773849 48.8586731 70.90969849 C51.86128728 73.90098218 54.86786578 76.88826127 57.875 79.875 C61.38241416 83.35880643 64.88818141 86.84423861 68.38980484 90.33386612 C69.79046243 91.7280284 71.19415175 93.11914267 72.59786987 94.51022339 C73.43939606 95.34844635 74.28092224 96.18666931 75.14794922 97.05029297 C75.89374237 97.7908493 76.63953552 98.53140564 77.40792847 99.29440308 C79 101 79 101 79 102 C52.93 102 26.86 102 0 102 C0 68.34 0 34.68 0 0 Z " fill="#FEFEFE" transform="translate(125,95)"/>
</svg>
