<?xml version="1.0" encoding="UTF-8"?>
<svg version="1.1" xmlns="http://www.w3.org/2000/svg" width="310" height="310">
<path d="M0 0 C0.74883453 -0.00570007 1.49766907 -0.01140015 2.26919556 -0.01727295 C3.85083631 -0.02667245 5.43249621 -0.0332367 7.01416016 -0.03710938 C9.37309514 -0.0467083 11.73111653 -0.07773414 14.08984375 -0.109375 C50.63731035 -0.36510057 87.21045768 14.26787392 113.875 39.1953125 C115.73031328 40.91666815 117.62627124 42.49969591 119.6015625 44.078125 C124.41604615 48.182275 128.1620596 53.23612296 132.0390625 58.203125 C132.78414063 59.13253906 133.52921875 60.06195313 134.296875 61.01953125 C152.46901232 84.28873148 165.0610164 115.40864131 165.2421875 145.1640625 C165.24788757 145.91289703 165.25358765 146.66173157 165.25946045 147.43325806 C165.26885995 149.01489881 165.2754242 150.59655871 165.27929688 152.17822266 C165.2888958 154.53715764 165.31992164 156.89517903 165.3515625 159.25390625 C165.60728807 195.80137285 150.97431358 232.37452018 126.046875 259.0390625 C124.32551935 260.89437578 122.74249159 262.79033374 121.1640625 264.765625 C117.0599125 269.58010865 112.00606454 273.3261221 107.0390625 277.203125 C106.10964844 277.94820313 105.18023437 278.69328125 104.22265625 279.4609375 C80.95345602 297.63307482 49.83354619 310.2250789 20.078125 310.40625 C19.32929047 310.41195007 18.58045593 310.41765015 17.80892944 310.42352295 C16.22728869 310.43292245 14.64562879 310.4394867 13.06396484 310.44335938 C10.70502986 310.4529583 8.34700847 310.48398414 5.98828125 310.515625 C-30.55918535 310.77135057 -67.13233268 296.13837608 -93.796875 271.2109375 C-95.65218828 269.48958185 -97.54814624 267.90655409 -99.5234375 266.328125 C-104.33792115 262.223975 -108.0839346 257.17012704 -111.9609375 252.203125 C-113.07855469 250.80900391 -113.07855469 250.80900391 -114.21875 249.38671875 C-132.39088732 226.11751852 -144.9828914 194.99760869 -145.1640625 165.2421875 C-145.16976257 164.49335297 -145.17546265 163.74451843 -145.18133545 162.97299194 C-145.19073495 161.39135119 -145.1972992 159.80969129 -145.20117188 158.22802734 C-145.2107708 155.86909236 -145.24179664 153.51107097 -145.2734375 151.15234375 C-145.52916307 114.60487715 -130.89618858 78.03172982 -105.96875 51.3671875 C-104.24739435 49.51187422 -102.66436659 47.61591626 -101.0859375 45.640625 C-96.9817875 40.82614135 -91.92793954 37.0801279 -86.9609375 33.203125 C-85.56681641 32.08550781 -85.56681641 32.08550781 -84.14453125 30.9453125 C-60.87533102 12.77317518 -29.75542119 0.1811711 0 0 Z " fill="#6457AC" transform="translate(144.9609375,-0.203125)"/>
<path d="M0 0 C0.74883453 -0.00570007 1.49766907 -0.01140015 2.26919556 -0.01727295 C3.85083631 -0.02667245 5.43249621 -0.0332367 7.01416016 -0.03710938 C9.37309514 -0.0467083 11.73111653 -0.07773414 14.08984375 -0.109375 C50.63731035 -0.36510057 87.21045768 14.26787392 113.875 39.1953125 C115.73031328 40.91666815 117.62627124 42.49969591 119.6015625 44.078125 C124.41604615 48.182275 128.1620596 53.23612296 132.0390625 58.203125 C132.78414063 59.13253906 133.52921875 60.06195313 134.296875 61.01953125 C152.46901232 84.28873148 165.0610164 115.40864131 165.2421875 145.1640625 C165.24788757 145.91289703 165.25358765 146.66173157 165.25946045 147.43325806 C165.26885995 149.01489881 165.2754242 150.59655871 165.27929688 152.17822266 C165.2888958 154.53715764 165.31992164 156.89517903 165.3515625 159.25390625 C165.60728807 195.80137285 150.97431358 232.37452018 126.046875 259.0390625 C124.32551935 260.89437578 122.74249159 262.79033374 121.1640625 264.765625 C117.0599125 269.58010865 112.00606454 273.3261221 107.0390625 277.203125 C106.10964844 277.94820313 105.18023437 278.69328125 104.22265625 279.4609375 C80.95345602 297.63307482 49.83354619 310.2250789 20.078125 310.40625 C19.32929047 310.41195007 18.58045593 310.41765015 17.80892944 310.42352295 C16.22728869 310.43292245 14.64562879 310.4394867 13.06396484 310.44335938 C10.70502986 310.4529583 8.34700847 310.48398414 5.98828125 310.515625 C-30.55918535 310.77135057 -67.13233268 296.13837608 -93.796875 271.2109375 C-95.65218828 269.48958185 -97.54814624 267.90655409 -99.5234375 266.328125 C-104.33792115 262.223975 -108.0839346 257.17012704 -111.9609375 252.203125 C-113.07855469 250.80900391 -113.07855469 250.80900391 -114.21875 249.38671875 C-132.39088732 226.11751852 -144.9828914 194.99760869 -145.1640625 165.2421875 C-145.16976257 164.49335297 -145.17546265 163.74451843 -145.18133545 162.97299194 C-145.19073495 161.39135119 -145.1972992 159.80969129 -145.20117188 158.22802734 C-145.2107708 155.86909236 -145.24179664 153.51107097 -145.2734375 151.15234375 C-145.52916307 114.60487715 -130.89618858 78.03172982 -105.96875 51.3671875 C-104.24739435 49.51187422 -102.66436659 47.61591626 -101.0859375 45.640625 C-96.9817875 40.82614135 -91.92793954 37.0801279 -86.9609375 33.203125 C-85.56681641 32.08550781 -85.56681641 32.08550781 -84.14453125 30.9453125 C-60.87533102 12.77317518 -29.75542119 0.1811711 0 0 Z M-41.9609375 33.203125 C-41.9609375 46.733125 -41.9609375 60.263125 -41.9609375 74.203125 C-55.4909375 74.203125 -69.0209375 74.203125 -82.9609375 74.203125 C-82.9609375 135.253125 -82.9609375 196.303125 -82.9609375 259.203125 C-46.1453125 259.265 -46.1453125 259.265 -8.5859375 259.328125 C3.02408447 259.35543701 3.02408447 259.35543701 14.86865234 259.38330078 C21.82734591 259.38999106 21.82734591 259.38999106 28.78604126 259.39401245 C31.87729788 259.39587022 34.9684853 259.40334314 38.0597229 259.41427612 C42.011534 259.42806608 45.96324548 259.43209408 49.9150784 259.42926955 C51.35992849 259.42985957 52.80478231 259.43378278 54.24961162 259.44155526 C72.12828233 259.53321066 87.05998808 255.88156805 101.0390625 244.203125 C101.75835937 243.60886719 102.47765625 243.01460937 103.21875 242.40234375 C114.06763686 232.54547573 121.44068037 216.6142303 122.515625 202.11328125 C123.37912461 181.69012266 116.09757561 165.69982358 102.4765625 150.828125 C101.00774815 149.27659203 99.5325564 147.73091625 98.0390625 146.203125 C98.8846875 145.213125 99.7303125 144.223125 100.6015625 143.203125 C101.14941406 142.55988281 101.69726562 141.91664063 102.26171875 141.25390625 C103.41649711 139.92146968 104.59020739 138.60512663 105.78515625 137.30859375 C119.14630545 122.69762658 122.82258513 106.68029724 122.16650391 87.36816406 C121.23688948 71.57540411 112.18785498 58.71881431 101.0390625 48.203125 C94.41097403 42.57647669 87.1678697 39.16814074 79.0390625 36.203125 C78.07484375 35.84863281 77.110625 35.49414062 76.1171875 35.12890625 C69.22231842 33.05519563 62.47235943 33.06352338 55.33032227 33.08959961 C54.27591446 33.08945358 53.22150665 33.08930756 52.13514709 33.0891571 C48.6668997 33.08985106 45.19870671 33.0976192 41.73046875 33.10546875 C39.31908701 33.10733477 36.90770489 33.1087578 34.49632263 33.10975647 C28.16210883 33.11356717 21.82791809 33.12338509 15.49371338 33.13446045 C9.02510897 33.14470569 2.55650082 33.14926076 -3.91210938 33.15429688 C-16.59506383 33.16500867 -29.27799513 33.18259375 -41.9609375 33.203125 Z " fill="#FEFEFE" transform="translate(144.9609375,-0.203125)"/>
<path d="M0 0 C11.33560621 -0.04524775 22.67115209 -0.08191447 34.00682831 -0.10362434 C39.27086248 -0.11404582 44.53483146 -0.12817516 49.79882812 -0.15087891 C54.88221372 -0.17266559 59.96553676 -0.18458093 65.04896545 -0.18975449 C66.98495976 -0.19343979 68.92095078 -0.20063621 70.85691833 -0.21146011 C73.57591051 -0.22605244 76.29464662 -0.22797471 79.01367188 -0.22705078 C80.20482605 -0.23783661 80.20482605 -0.23783661 81.42004395 -0.24884033 C93.22699294 -0.20564186 103.26409961 4.15489397 111.875 12.25 C120.27285587 21.1736608 123.4813878 31.62967997 123.24609375 43.7265625 C122.08006768 59.23656 112.21749207 69.36110148 101.625 79.625 C100.4951604 80.73472761 99.36624679 81.84539883 98.23828125 82.95703125 C95.50272532 85.64900206 92.75501243 88.32795065 90 91 C91.51876738 94.18941149 93.08940757 96.33246836 95.625 98.8125 C96.33914062 99.51246094 97.05328125 100.21242188 97.7890625 100.93359375 C99.80866252 102.82117045 101.87973697 104.60252715 104 106.375 C113.15944262 114.34910299 121.44823287 124.99125844 122.5078125 137.4453125 C123.06305109 150.23591734 120.22065029 160.95253854 112 171 C104.74453576 178.75584109 95.94967207 183.64467288 85.24707222 184.12304783 C84.30131262 184.12212604 83.35555302 184.12120424 82.38113403 184.12025452 C81.28971666 184.12163201 80.19829929 184.12300951 79.07380867 184.12442875 C77.88687857 184.12083064 76.69994846 184.11723253 75.47705078 184.11352539 C73.55795804 184.11370619 73.55795804 184.11370619 71.60009575 184.11389065 C68.15077678 184.11411568 64.70149276 184.10833517 61.25218201 184.10128021 C58.01113991 184.09556988 54.77009926 184.09531625 51.52905273 184.09460449 C42.06103056 184.08936478 32.59301483 184.07540356 23.125 184.0625 C-8.616875 184.0315625 -8.616875 184.0315625 -41 184 C-41 136.81 -41 89.62 -41 41 C-34.07 41 -27.14 41 -20 41 C-20 81.26 -20 121.52 -20 163 C-2.51 162.9175 14.98 162.835 33 162.75 C41.26998047 162.72631348 41.26998047 162.72631348 49.70703125 162.70214844 C54.66859879 162.66891002 54.66859879 162.66891002 59.63012695 162.63043213 C61.83223936 162.61586119 64.03441173 162.60904829 66.23657227 162.60845947 C69.58129082 162.60603542 72.92498996 162.57864645 76.26953125 162.54589844 C77.72997612 162.55343454 77.72997612 162.55343454 79.21992493 162.56112289 C85.30236907 162.46811532 89.91082728 161.44578361 95 158 C96.87935799 156.11721689 96.87935799 156.11721689 97.9375 154 C98.31777344 153.34 98.69804687 152.68 99.08984375 152 C101.12556212 147.52666179 101.74694875 142.86804063 101 138 C98.10182256 130.78482783 93.12630611 125.58688131 87.63671875 120.24609375 C86.44874443 119.06660912 86.44874443 119.06660912 85.23677063 117.86329651 C82.72965885 115.37839771 80.20893956 112.90785047 77.6875 110.4375 C75.97498911 108.74507341 74.26339101 107.05172267 72.55273438 105.35742188 C68.37898329 101.22753792 64.1939987 97.10931509 60 93 C61.39389425 89.84240061 63.01735464 87.75403328 65.48413086 85.35229492 C66.19504379 84.65444382 66.90595673 83.95659271 67.63841248 83.2375946 C68.78999596 82.12031731 68.78999596 82.12031731 69.96484375 80.98046875 C71.58556271 79.38504621 73.20599656 77.789334 74.82617188 76.19335938 C77.38115121 73.68797222 79.93917562 71.18586808 82.50268555 68.68920898 C84.9781271 66.27433598 87.44085255 63.84704858 89.90234375 61.41796875 C90.66804184 60.67918991 91.43373993 59.94041107 92.22264099 59.179245 C97.1835339 54.26529917 100.41561601 50.22246076 101.3984375 43.12109375 C101.35034088 37.61403122 100.99834675 33.79735481 98 29 C97.67 28.01 97.34 27.02 97 26 C95.35369807 24.88064927 95.35369807 24.88064927 93 24 C91.80938965 23.49329269 90.6187793 22.98658539 89.39208984 22.46452332 C84.95796786 20.81525722 80.98482361 20.5588301 76.2890625 20.56762695 C75.45884079 20.5574353 74.62861908 20.54724365 73.77323914 20.53674316 C71.05708915 20.50679631 68.34129286 20.49737548 65.625 20.48828125 C63.73070114 20.47142096 61.83641338 20.45326891 59.94213867 20.43388367 C54.97743192 20.38652418 50.01277018 20.35662407 45.0479126 20.33044434 C39.97325761 20.30056772 34.89875745 20.25406186 29.82421875 20.20898438 C19.882876 20.12311107 9.94154893 20.05723347 0 20 C0 13.4 0 6.8 0 0 Z " fill="#FCFCFD" transform="translate(124,54)"/>
<path d="M0 0 C26.73 0 53.46 0 81 0 C77.48281356 4.10338418 74.16189686 7.96284248 70.37158203 11.74194336 C69.08092331 13.03248878 69.08092331 13.03248878 67.76419067 14.34910583 C66.85458588 15.25354935 65.94498108 16.15799286 65.0078125 17.08984375 C64.05209752 18.04368954 63.09660612 18.99775941 62.1413269 19.95204163 C59.64805084 22.44153194 57.15178475 24.92800224 54.65484619 27.41381836 C52.09878491 29.95957994 49.54561495 32.50823777 46.9921875 35.05664062 C41.99758981 40.04057069 36.99982201 45.02131048 32 50 C33.88691445 54.1092941 36.65351968 56.89086786 39.85546875 60.015625 C40.43533035 60.59028503 41.01519196 61.16494507 41.61262512 61.75701904 C43.4662186 63.59284019 45.3263386 65.42185415 47.1875 67.25 C49.62189181 69.64761852 52.05306041 72.0484363 54.48046875 74.453125 C55.06391556 75.03098251 55.64736237 75.60884003 56.24848938 76.20420837 C59.83272775 79.77577124 63.24668046 83.43618748 66.52124023 87.29638672 C69.00806308 90.16134459 71.72261593 92.79074351 74.4375 95.4375 C76.31622789 97.27144296 78.16733147 99.11918255 80 101 C80 101.33 80 101.66 80 102 C53.6 102 27.2 102 0 102 C0 68.34 0 34.68 0 0 Z " fill="#FDFDFE" transform="translate(124,95)"/>
</svg>
