<svg width="178" height="48" viewBox="0 0 178 48" fill="none" xmlns="http://www.w3.org/2000/svg">
<path d="M62.9497 14.3914V30.0036H70.5599L70.0807 33.6086H58.3271V14.3914H62.9497Z" fill="white"/>
<path d="M85.1138 33.6086L84.0991 29.4767H78.4056L77.419 33.6086H72.6274L78.5183 14.3914H84.1273L90.0182 33.6086H85.1138ZM79.1948 26.1768H83.3099L81.2523 17.6913L79.1948 26.1768Z" fill="white"/>
<path d="M104.974 14.3914L104.523 17.8854H99.7028V33.6086H95.0803V17.8854H90.035V14.3914H104.974Z" fill="white"/>
<path d="M114.82 13.92C117.601 13.92 119.762 14.7981 121.303 16.5544C122.862 18.3106 123.642 20.7879 123.642 23.9861C123.642 26.0751 123.285 27.8776 122.571 29.3935C121.876 30.9095 120.861 32.0742 119.527 32.8876C118.212 33.6825 116.643 34.08 114.82 34.08C112.997 34.08 111.428 33.6825 110.113 32.8876C108.798 32.0926 107.783 30.9464 107.069 29.449C106.374 27.9331 106.026 26.1121 106.026 23.9861C106.026 21.9156 106.374 20.1223 107.069 18.6064C107.783 17.0905 108.798 15.9351 110.113 15.1401C111.428 14.3267 112.997 13.92 114.82 13.92ZM114.82 17.2476C113.486 17.2476 112.49 17.7838 111.832 18.856C111.193 19.9097 110.874 21.6198 110.874 23.9861C110.874 26.3524 111.203 28.0717 111.86 29.144C112.518 30.2162 113.505 30.7523 114.82 30.7523C116.173 30.7523 117.169 30.2255 117.808 29.1717C118.465 28.0995 118.794 26.3709 118.794 23.9861C118.794 21.6013 118.465 19.882 117.808 18.8283C117.15 17.7745 116.154 17.2476 114.82 17.2476Z" fill="white"/>
<path d="M131.64 14.3914V33.6086H127.018V14.3914H131.64ZM142.858 14.3914L136.629 23.0156L143.366 33.6086H138.01L131.781 23.3483L137.982 14.3914H142.858Z" fill="white"/>
<path d="M158.399 14.3914L157.92 17.6359H151.043V22.2391H157.046V25.4281H151.043V30.3364H158.399V33.6086H146.42V14.3914H158.399Z" fill="white"/>
<path d="M177.391 33.6086H171.501L165.863 18.7173C166.051 20.1778 166.192 21.4719 166.286 22.5996C166.399 23.7088 166.455 25.0306 166.455 26.565V33.6086H162.34V14.3914H168.09L173.868 29.3104C173.455 26.7776 173.248 24.3928 173.248 22.1559V14.3914H177.391V33.6086Z" fill="white"/>
<path fill-rule="evenodd" clip-rule="evenodd" d="M24 48C37.2548 48 48 37.2548 48 24C48 10.7452 37.2548 0 24 0C10.7452 0 0 10.7452 0 24C0 37.2548 10.7452 48 24 48ZM16.2222 29.8561L23.1779 14H17.7909L9 34H19.5599H21.5795H25.1837L26.634 29.9137H31.9914L32.317 34H38L34.9217 14H28.41L21.3936 29.8561H16.2222ZM31.725 26.1151H27.966L31.0443 17.4532L31.725 26.1151Z" fill="white"/>
</svg>
