<?xml version="1.0" encoding="utf-8"?>
<!-- Generator: Adobe Illustrator 19.1.0, SVG Export Plug-In . SVG Version: 6.00 Build 0)  -->
<svg version="1.1" id="Layer_1" xmlns="http://www.w3.org/2000/svg" xmlns:xlink="http://www.w3.org/1999/xlink" x="0px" y="0px"
	 viewBox="-482 396.9 226 48" style="enable-background:new -482 396.9 226 48;" xml:space="preserve">
<style type="text/css">
	.st0{fill:#FFFFFF;}
</style>
<title>Logo</title>
<desc>Created with Sketch.</desc>
<g id="xchange-GUI" transform="translate(-240.000000, -80.000000)">
	<g id="Logo" transform="translate(240.000000, 80.000000)">
		<path id="Fill-1" class="st0" d="M-451.9,417.6l-4.9-7.7h0c1.3-1,2.7-1.9,4.2-2.7c3.1-1.7,6.3-2.8,9.6-3.3L-451.9,417.6z
			 M-447,432L-447,432c-1.2,1-2.6,1.9-4.1,2.7c-3.1,1.7-6.4,2.8-9.8,3.4l8.9-13.8L-447,432z M-421.8,407.8
			C-421.8,407.8-421.8,407.8-421.8,407.8L-421.8,407.8L-421.8,407.8c-0.3-0.3-0.7-0.6-1-0.9l-11.5-9.7c0,0,1.4,2.8,1.4,4.5
			c-6.9-2-14.6-1.4-21.5,2.4c-10.9,5.9-16.4,17.8-14.6,29.4c0.3-7.9,3.6-15.5,9.4-21.1l5.6,8.6l-11.3,17.5
			c-5.8,0.1-11.6-1.4-16.6-4.4c0,0,0,0,0,0l0,0l0,0c0.3,0.3,0.7,0.6,1,0.9l11.5,9.7c0,0-1.4-2.8-1.4-4.5c6.9,2,14.6,1.4,21.5-2.4
			c10.9-5.9,16.4-17.8,14.6-29.3c-0.3,7.9-3.6,15.5-9.4,21.1l-5.6-8.7l11.3-17.5C-432.6,403.3-426.8,404.8-421.8,407.8z"/>
		<path id="Fill-4" class="st0" d="M-256,422.6V421h-6.5v9.8h6.5v-1.7h-4.6v-2.7h4.6V425h-4.6v-2.4H-256z M-277.4,425.9l-2.7-4.9
			h-2.2v9.9h1.9v-6.6l3,5.3l3.1-5.2v6.6h1.9V421h-2.1L-277.4,425.9z M-293.8,430.9h1.9V429h-1.9V430.9z M-309.7,430.9h6.5v-1.7h-4.6
			v-2.7h4.6V425h-4.6v-2.4h4.6V421h-6.5V430.9z M-323.1,427.4h2v0.9c-0.3,0.3-0.7,0.5-1.1,0.7c-0.4,0.2-0.8,0.2-1.3,0.2
			c-0.5,0-0.9-0.1-1.3-0.3c-0.4-0.2-0.8-0.4-1.1-0.7c-0.3-0.3-0.5-0.7-0.7-1.1c-0.2-0.4-0.3-0.8-0.3-1.3c0-0.5,0.1-0.9,0.3-1.3
			c0.2-0.4,0.4-0.7,0.7-1c0.3-0.3,0.7-0.5,1.1-0.7c0.4-0.2,0.8-0.3,1.3-0.3c0.6,0,1.1,0.1,1.5,0.3c0.5,0.2,0.9,0.6,1.2,1.1l1.3-1.3
			c-0.5-0.6-1.1-1-1.8-1.4c-0.7-0.3-1.5-0.5-2.3-0.5c-0.7,0-1.4,0.1-2.1,0.4c-0.6,0.3-1.2,0.6-1.7,1.1c-0.5,0.5-0.9,1-1.1,1.6
			c-0.3,0.6-0.4,1.3-0.4,2c0,0.7,0.1,1.4,0.4,2c0.3,0.6,0.7,1.2,1.1,1.6c0.5,0.5,1,0.8,1.7,1.1c0.6,0.3,1.3,0.4,2.1,0.4
			c0.4,0,0.7,0,1.1-0.1c0.4-0.1,0.7-0.2,1.1-0.4c0.4-0.2,0.7-0.4,1-0.6c0.3-0.3,0.6-0.5,0.9-0.9v-3.3h-3.9V427.4z M-340.2,427.4
			l-4.2-6.4h-2.1v9.9h1.9V424l4.4,6.9h1.9V421h-1.9V427.4z M-362.7,427.3l1.7-3.5l1.6,3.5H-362.7z M-361.8,421l-4.7,9.9h2.1l0.9-2
			h4.8l0.9,2h2.1l-4.7-9.9H-361.8z M-377.5,424.9h-3.9V421h-1.9v9.8h1.9v-4.4h3.9v4.4h1.9V421h-1.9V424.9z M-394.9,428.8
			c-0.5,0.3-1,0.4-1.6,0.4c-0.5,0-0.9-0.1-1.3-0.3c-0.4-0.2-0.8-0.4-1.1-0.7c-0.3-0.3-0.5-0.6-0.7-1c-0.2-0.4-0.3-0.8-0.3-1.3
			c0-0.5,0.1-0.9,0.3-1.3c0.2-0.4,0.4-0.7,0.7-1c0.3-0.3,0.7-0.5,1.1-0.7c0.4-0.2,0.8-0.3,1.3-0.3c0.6,0,1.1,0.1,1.6,0.4
			c0.5,0.3,0.9,0.6,1.2,1.1l1.3-1.4c-0.5-0.6-1.1-1-1.8-1.4c-0.7-0.4-1.5-0.5-2.3-0.5c-0.7,0-1.4,0.1-2.1,0.4
			c-0.6,0.3-1.2,0.6-1.7,1.1c-0.5,0.5-0.8,1-1.1,1.6c-0.3,0.6-0.4,1.3-0.4,2c0,0.7,0.1,1.4,0.4,2c0.3,0.6,0.6,1.2,1.1,1.6
			c0.5,0.5,1,0.8,1.7,1.1c0.6,0.3,1.3,0.4,2.1,0.4c0.8,0,1.6-0.2,2.3-0.5c0.7-0.4,1.3-0.8,1.8-1.4l-1.3-1.4
			C-394,428.2-394.4,428.5-394.9,428.8z M-409.7,421h-2.4l-2.2,3.3l-2.2-3.3h-2.3l3.3,4.7l-3.6,5.1h2.4l2.5-3.7l2.5,3.7h2.4
			l-3.6-5.1L-409.7,421z"/>
	</g>
</g>
</svg>
