<?xml version="1.0" encoding="utf-8"?>
<!-- Generator: Adobe Illustrator 19.1.0, SVG Export Plug-In . SVG Version: 6.00 Build 0)  -->
<svg xmlns="http://www.w3.org/2000/svg" xmlns:xlink="http://www.w3.org/1999/xlink" version="1.1" id="Layer_1" x="0px" y="0px" viewBox="-166 345 279 104" style="enable-background:new -166 345 279 104;" xml:space="preserve">

<g>
	<path class="st0" d="M-83.2,399c0.3-0.3,0.5-0.6,0.8-0.8c0.9-1,1.9-2,2.8-3c3.8-3.9,5.9-9,5.9-14.4c0-0.4,0.1-1.9,0.1-2.1   c-0.5-12.4-10.9-22.4-23.2-22.4h-38.9v15.5h-15.7v70h55.2c12.3,0,22.6-10.8,22.6-23.6C-73.6,409.1-79.3,402.6-83.2,399z    M-127.9,379.6h31l-19.5,19.5l19.2,19.3h-30.7V379.6z M-96.2,434h-47.4v-54.4h7.8v46.7h38.6c3.2,0,6-1.9,7.2-4.8s0.6-6.3-1.7-8.5   l-13.7-13.8l14-14c2.2-2.2,2.9-5.6,1.7-8.5c-1.2-2.9-4.1-4.8-7.2-4.8h-31v-7.7h31.1c8.2,0,15.1,6.6,15.4,14.7   c0,0.4-0.1,1.7-0.1,1.7v0.2c0,4.5-2.3,7.6-3.7,9.1c-1,1-2,2-2.9,3c-1.5,1.6-2.8,3-3.4,3.6l-2.8,2.8l2.8,2.8   c0.4,0.4,0.9,0.8,1.4,1.3c3.2,3,8.7,8,8.7,15C-81.4,426.6-88.3,434-96.2,434z"/>
	<g>
		<g>
			<path class="st0" d="M-47.6,363.4c1.2-0.3,2.5-0.5,4.1-0.8c1.6-0.2,3.2-0.3,4.9-0.3c1.6,0,3.1,0.1,4.6,0.4s2.8,0.7,4,1.4     c1.2,0.7,2.1,1.5,2.8,2.6s1.1,2.5,1.1,4.2c0,1.2-0.2,2.4-0.7,3.4c-0.4,1.1-1,2-1.7,2.8s-1.5,1.5-2.5,2.1     c-0.9,0.6-1.9,1.1-2.9,1.4c0.8,0.2,1.6,0.6,2.3,1c0.7,0.5,1.2,1,1.7,1.7c0.5,0.6,0.8,1.3,1.1,2.1c0.3,0.8,0.4,1.6,0.4,2.4     c0,2.6-0.5,4.7-1.6,6.4c-1,1.7-2.4,3-4.1,4c-1.7,1-3.6,1.7-5.8,2c-2.2,0.4-4.4,0.6-6.8,0.6c-1.7,0-3.4-0.1-5-0.3     s-3.1-0.4-4.5-0.7L-47.6,363.4z M-52.1,397.1c0.8,0.1,1.6,0.2,2.5,0.3c0.9,0.1,1.9,0.1,2.9,0.1c1.8,0,3.5-0.1,5.2-0.4     s3.2-0.7,4.6-1.4c1.3-0.7,2.4-1.7,3.2-2.9c0.8-1.2,1.2-2.8,1.2-4.8c0-2.1-0.7-3.6-2.2-4.4c-1.4-0.8-3.8-1.2-7.1-1.2h-6.9     L-52.1,397.1z M-42.7,379.1c4.6,0,7.8-0.7,9.8-2.1s3-3.2,3-5.6c0-2.2-0.8-3.7-2.3-4.6s-3.9-1.4-7-1.4c-1,0-1.9,0-2.8,0.1     s-1.7,0.2-2.4,0.3l-3.4,13.2L-42.7,379.1L-42.7,379.1z"/>
			<path class="st0" d="M-17.1,372.2h3.5l-6.8,28.1h-3.5L-17.1,372.2z M-15.8,364c0-0.9,0.3-1.7,0.8-2.1c0.5-0.5,1.1-0.7,1.7-0.7     c0.7,0,1.3,0.2,1.7,0.7s0.6,1,0.6,1.8c0,0.9-0.3,1.5-0.9,2s-1.2,0.7-1.7,0.7c-0.7,0-1.3-0.2-1.6-0.6     C-15.5,365.2-15.8,364.7-15.8,364z"/>
			<path class="st0" d="M-3.9,364l3.7-0.7l-2.1,8.9h9.9l-0.7,3h-10l-3.3,13.7c-0.2,0.7-0.3,1.3-0.5,2.1c-0.1,0.7-0.2,1.5-0.2,2.2     c0,1.6,0.4,2.8,1.2,3.4c0.8,0.7,1.8,1,3,1s2.2-0.1,3-0.4c0.9-0.3,1.8-0.6,2.7-1l0.3,3.2c-1,0.4-2.1,0.7-3.3,1s-2.4,0.4-3.6,0.4     c-0.9,0-1.8-0.1-2.7-0.3c-0.8-0.2-1.6-0.6-2.2-1.1s-1.1-1.2-1.5-2s-0.6-1.9-0.6-3.1c0-1.6,0.3-3.3,0.8-5.4L-3.9,364z"/>
			<path class="st0" d="M19.4,400.7c-1.8,0-3.8-0.1-5.8-0.2c-2-0.2-3.9-0.4-5.5-0.8l8.7-36.4c1.6-0.4,3.3-0.6,5.2-0.8     c1.8-0.1,3.6-0.2,5.5-0.2c1.5,0,3.1,0.1,4.6,0.3c1.6,0.2,3,0.6,4.3,1.3c1.3,0.6,2.3,1.5,3.1,2.6s1.2,2.5,1.2,4.3     c0,1.9-0.5,3.7-1.6,5.4s-2.9,3.1-5.4,4.1c1.6,0.7,2.8,1.6,3.7,2.8c0.9,1.2,1.3,2.7,1.3,4.3c0,4.2-1.7,7.5-5,9.8     C30.4,399.5,25.7,400.7,19.4,400.7z M18.8,383.3L16,394.8c0.5,0.1,1.2,0.1,2,0.2s1.8,0.1,2.8,0.1c1.2,0,2.4-0.1,3.7-0.3     c1.3-0.2,2.5-0.5,3.5-1c1.1-0.5,1.9-1.2,2.6-2.2c0.7-0.9,1.1-2.2,1.1-3.6s-0.5-2.5-1.6-3.4c-1-0.9-2.8-1.3-5.2-1.3     C24.9,383.3,18.8,383.3,18.8,383.3z M20.1,378h5.2c1.1,0,2.2-0.1,3.3-0.3c1-0.2,2-0.6,2.7-1.1c0.8-0.5,1.4-1.1,1.9-1.8     c0.5-0.7,0.7-1.6,0.7-2.7c0-1.7-0.6-2.8-1.9-3.4c-1.2-0.6-2.9-0.9-5-0.9c-0.8,0-1.7,0-2.5,0.1s-1.5,0.1-2,0.2L20.1,378z"/>
			<path class="st0" d="M66.9,389.2c-0.1,0.4-0.2,1.1-0.3,2s-0.2,1.8-0.2,2.6c0,1.1,0.1,2.1,0.3,3.1s0.5,2,0.9,3l-5.9,0.9     c-0.4-0.9-0.8-1.8-1-2.8c-0.9,0.8-2,1.5-3.3,2.1s-2.8,1-4.5,1s-3.2-0.3-4.4-0.8c-1.2-0.6-2.2-1.3-3-2.3s-1.3-2.2-1.7-3.5     s-0.5-2.8-0.5-4.3c0-2.6,0.5-5.1,1.4-7.4s2.3-4.3,3.9-5.9c1.7-1.7,3.7-3,6-3.9c2.3-1,4.8-1.4,7.6-1.4c1.4,0,2.8,0.1,4.3,0.4     c1.4,0.2,2.9,0.7,4.3,1.3L66.9,389.2z M63.3,377c-0.7-0.1-1.5-0.2-2.3-0.2c-1.6,0-3.1,0.4-4.5,1.1s-2.6,1.6-3.6,2.8     s-1.8,2.5-2.3,4s-0.8,3.1-0.8,4.8c0,0.8,0.1,1.6,0.2,2.3c0.1,0.7,0.4,1.4,0.7,1.9s0.8,1,1.4,1.3c0.6,0.3,1.3,0.5,2.2,0.5     c1.2,0,2.2-0.2,3.1-0.7s1.7-1.1,2.5-2c0-0.9,0.1-1.8,0.2-2.7c0.1-0.8,0.3-1.7,0.5-2.5L63.3,377z"/>
			<path class="st0" d="M100.1,371.9c-0.7,2.1-1.5,4.2-2.4,6.4c-0.9,2.2-1.8,4.5-2.9,6.7s-2.2,4.5-3.5,6.7c-1.2,2.2-2.6,4.4-4,6.5     c-1.1,1.6-2.1,3.1-3.3,4.6c-1.1,1.5-2.3,2.8-3.7,3.9c-1.3,1.1-2.8,2-4.4,2.7s-3.4,1-5.4,1c-1.1,0-2.1-0.1-3-0.4s-1.6-0.5-2.3-0.9     l2.1-5.3c0.5,0.3,1.1,0.5,1.7,0.7c0.6,0.2,1.3,0.3,2.1,0.3c1.7,0,3.2-0.4,4.5-1.3s2.5-2.1,3.5-3.6c-1.2-4-2.1-8.4-2.9-13.1     s-1.3-9.7-1.6-15h6.6c0,1.5,0.1,3.2,0.2,5s0.3,3.7,0.5,5.7c0.2,1.9,0.4,3.8,0.7,5.7c0.3,1.9,0.6,3.6,1,5.2c1.1-1.7,2.1-3.6,3-5.5     s1.8-3.8,2.6-5.7c0.8-1.9,1.5-3.7,2.1-5.5s1.1-3.4,1.6-4.9L100.1,371.9L100.1,371.9L100.1,371.9z"/>
		</g>
		<g>
			<path class="st0" d="M-43.3,435.2c-0.6,0.3-1.4,0.6-2.4,0.9c-1,0.3-2.1,0.4-3.5,0.4c-1.2,0-2.3-0.2-3.2-0.6     c-1-0.4-1.8-0.9-2.4-1.6c-0.7-0.7-1.2-1.5-1.5-2.5c-0.4-1-0.5-2.1-0.5-3.3c0-1.6,0.3-3.1,0.8-4.7c0.5-1.5,1.3-2.9,2.3-4     c1-1.2,2.2-2.1,3.7-2.8c1.4-0.7,3.1-1.1,4.9-1.1c1.2,0,2.2,0.1,3.1,0.4c0.9,0.3,1.7,0.6,2.3,1l-1.4,2.9c-0.6-0.4-1.3-0.6-2-0.8     c-0.7-0.2-1.5-0.3-2.4-0.3c-1.2,0-2.3,0.3-3.2,0.8c-1,0.5-1.8,1.2-2.4,2.1c-0.7,0.9-1.2,1.8-1.5,3c-0.4,1.1-0.5,2.2-0.5,3.4     c0,1.8,0.4,3.1,1.2,3.9s1.9,1.3,3.4,1.3c1.1,0,2.1-0.1,2.9-0.4c0.8-0.3,1.5-0.5,2.1-0.8L-43.3,435.2z"/>
			<path class="st0" d="M-35.7,436.4c-1.8,0-3.1-0.5-4-1.6s-1.4-2.4-1.4-4.1c0-1.1,0.2-2.2,0.5-3.4c0.3-1.2,0.9-2.3,1.6-3.2     c0.7-1,1.6-1.8,2.7-2.4c1.1-0.6,2.3-0.9,3.8-0.9c1.8,0,3.1,0.5,4,1.6c0.9,1,1.4,2.4,1.4,4.1c0,1.1-0.2,2.3-0.5,3.4     c-0.3,1.2-0.8,2.3-1.5,3.2c-0.7,1-1.6,1.8-2.7,2.4C-33,436.1-34.3,436.4-35.7,436.4z M-33.1,423.6c-0.7,0-1.4,0.2-2,0.6     c-0.6,0.4-1.1,1-1.5,1.6c-0.4,0.7-0.7,1.4-0.9,2.2c-0.2,0.8-0.3,1.6-0.3,2.3c0,1,0.2,1.7,0.5,2.3c0.4,0.6,1,0.8,1.9,0.8     c0.7,0,1.4-0.2,2-0.6c0.6-0.4,1.1-1,1.5-1.6c0.4-0.7,0.7-1.4,0.9-2.2c0.2-0.8,0.3-1.6,0.3-2.3c0-0.9-0.2-1.7-0.5-2.3     C-31.6,423.9-32.2,423.6-33.1,423.6z"/>
			<path class="st0" d="M-22.4,421.7c0.8-0.2,1.6-0.4,2.6-0.6c1-0.2,2-0.3,3.1-0.3c0.9,0,1.6,0.1,2.2,0.4c0.6,0.2,1.1,0.6,1.5,1.1     c0.6-0.3,1.2-0.6,2-1c0.8-0.3,1.7-0.5,2.7-0.5c0.9,0,1.6,0.1,2.2,0.4c0.6,0.2,1.1,0.6,1.5,1c0.4,0.4,0.7,1,0.8,1.6     c0.2,0.6,0.3,1.2,0.3,2c0,0.8-0.1,1.6-0.3,2.5l-1.9,7.8h-3.4l1.8-7.5c0.1-0.4,0.2-0.8,0.3-1.2c0.1-0.4,0.1-0.9,0.1-1.3     c0-0.3,0-0.6-0.1-0.9c-0.1-0.3-0.2-0.5-0.4-0.8c-0.2-0.2-0.4-0.4-0.7-0.5c-0.3-0.1-0.7-0.2-1.1-0.2c-0.5,0-1,0.1-1.5,0.3     c-0.5,0.2-0.9,0.4-1.2,0.6c0.1,0.4,0.1,0.8,0.1,1.2c0,0.4,0,0.8-0.1,1.2c-0.1,0.4-0.1,0.8-0.2,1.2l-1.9,7.8h-3.4l1.8-7.5     c0.1-0.3,0.2-0.7,0.3-1.2s0.1-0.9,0.1-1.3c0-0.6-0.1-1.2-0.4-1.6c-0.3-0.5-0.9-0.7-1.7-0.7c-0.4,0-0.7,0-1.1,0.1     c-0.3,0-0.7,0.1-0.9,0.2l-2.9,12.1h-3.5L-22.4,421.7z"/>
			<path class="st0" d="M1.6,421.7c0.8-0.2,1.6-0.4,2.6-0.6c1-0.2,2-0.3,3.1-0.3c0.9,0,1.6,0.1,2.2,0.4c0.6,0.2,1.1,0.6,1.5,1.1     c0.6-0.3,1.2-0.6,2-1c0.8-0.3,1.7-0.5,2.7-0.5c0.9,0,1.6,0.1,2.2,0.4c0.6,0.2,1.1,0.6,1.5,1c0.4,0.4,0.7,1,0.8,1.6     c0.2,0.6,0.3,1.2,0.3,2c0,0.8-0.1,1.6-0.3,2.5l-1.9,7.8h-3.4l1.8-7.5c0.1-0.4,0.2-0.8,0.3-1.2c0.1-0.4,0.1-0.9,0.1-1.3     c0-0.3,0-0.6-0.1-0.9c-0.1-0.3-0.2-0.5-0.4-0.8c-0.2-0.2-0.4-0.4-0.7-0.5c-0.3-0.1-0.7-0.2-1.1-0.2c-0.5,0-1,0.1-1.5,0.3     c-0.5,0.2-0.9,0.4-1.2,0.6c0.1,0.4,0.1,0.8,0.1,1.2c0,0.4,0,0.8-0.1,1.2c-0.1,0.4-0.1,0.8-0.2,1.2L9.9,436H6.5l1.8-7.5     c0.1-0.3,0.2-0.7,0.3-1.2c0.1-0.4,0.1-0.9,0.1-1.3c0-0.6-0.1-1.2-0.4-1.6c-0.3-0.5-0.9-0.7-1.7-0.7c-0.4,0-0.7,0-1.1,0.1     c-0.3,0-0.7,0.1-0.9,0.2L1.7,436h-3.5L1.6,421.7z"/>
			<path class="st0" d="M37.4,421.1l-2.1,8.9c-0.1,0.4-0.2,0.9-0.2,1.3c0,0.4-0.1,0.9-0.1,1.3c0,0.6,0,1.1,0.1,1.6     c0.1,0.5,0.2,1.1,0.4,1.6l-3.1,0.5c-0.1-0.2-0.2-0.4-0.3-0.7c-0.1-0.3-0.2-0.5-0.2-0.8c-0.5,0.4-1.1,0.7-1.8,1.1     c-0.7,0.4-1.5,0.5-2.5,0.5c-0.8,0-1.5-0.1-2.1-0.4c-0.6-0.2-1.1-0.6-1.4-1c-0.4-0.4-0.6-0.9-0.8-1.5c-0.2-0.6-0.2-1.2-0.2-1.8     c0-0.8,0.1-1.7,0.3-2.7l1.9-7.8h3.4l-1.9,7.8c-0.2,1-0.4,1.8-0.4,2.4c0,0.3,0,0.6,0.1,0.9c0.1,0.3,0.2,0.5,0.3,0.7     c0.1,0.2,0.3,0.4,0.6,0.5s0.6,0.2,1,0.2c0.6,0,1.2-0.1,1.7-0.4c0.5-0.3,1-0.6,1.4-1c0.1-0.8,0.2-1.7,0.4-2.5l2-8.4H37.4z"/>
			<path class="st0" d="M41.8,421.7c0.8-0.2,1.6-0.4,2.6-0.6c1-0.2,2-0.3,3.2-0.3c1.7,0,3,0.4,3.8,1.3c0.8,0.9,1.2,2,1.2,3.4     c0,0.4,0,0.8-0.1,1.3c-0.1,0.4-0.1,0.9-0.2,1.4l-1.9,7.8H47l1.8-7.5c0.1-0.4,0.2-0.8,0.3-1.3c0.1-0.4,0.2-0.9,0.2-1.3     c0-0.7-0.1-1.2-0.5-1.7c-0.3-0.4-1-0.7-2-0.7c-0.8,0-1.5,0.1-2.1,0.3L41.8,436h-3.5L41.8,421.7z"/>
			<path class="st0" d="M57.8,436h-3.4l3.6-14.9h3.4L57.8,436z M60.4,418.9c-0.5,0-1-0.2-1.3-0.5c-0.4-0.3-0.6-0.8-0.6-1.4     c0-0.7,0.2-1.3,0.7-1.7c0.5-0.5,1-0.7,1.7-0.7c0.5,0,1,0.2,1.4,0.5c0.4,0.3,0.6,0.8,0.6,1.4c0,0.7-0.2,1.3-0.7,1.7     C61.6,418.6,61,418.9,60.4,418.9z"/>
			<path class="st0" d="M66.3,417.2l3.6-0.6l-1.1,4.5h4.9L73,424h-4.9l-1.4,5.9c-0.1,0.4-0.2,0.8-0.2,1c0,0.3-0.1,0.5-0.1,0.8     s0,0.5,0.1,0.7s0.1,0.4,0.3,0.6c0.1,0.2,0.4,0.3,0.6,0.4c0.3,0.1,0.7,0.2,1.1,0.2c0.5,0,1-0.1,1.5-0.2c0.5-0.1,0.9-0.3,1.3-0.4     l0.3,2.8c-0.4,0.2-1,0.4-1.7,0.5c-0.7,0.2-1.4,0.3-2.3,0.3c-1.6,0-2.8-0.4-3.5-1.1c-0.7-0.7-1.1-1.7-1.1-2.9c0-0.5,0-0.9,0.1-1.4     c0.1-0.5,0.2-1,0.3-1.6L66.3,417.2z"/>
			<path class="st0" d="M88.1,421.1c-0.4,1.1-0.8,2.2-1.3,3.4c-0.5,1.2-1,2.3-1.5,3.5c-0.6,1.2-1.2,2.4-1.8,3.5     c-0.6,1.2-1.3,2.3-2.1,3.4c-0.6,0.8-1.1,1.6-1.7,2.4c-0.6,0.8-1.2,1.4-1.9,2c-0.7,0.6-1.5,1.1-2.3,1.4c-0.8,0.4-1.8,0.5-2.9,0.5     c-0.6,0-1.1-0.1-1.6-0.2c-0.5-0.1-0.9-0.3-1.2-0.5l1.1-2.8c0.3,0.2,0.6,0.3,0.9,0.4c0.3,0.1,0.7,0.1,1.1,0.1     c0.9,0,1.7-0.2,2.4-0.7c0.7-0.5,1.3-1.1,1.8-1.9c-0.6-2.1-1.1-4.4-1.5-6.9c-0.4-2.5-0.7-5.1-0.8-7.9h3.5c0,0.8,0.1,1.7,0.1,2.7     c0.1,1,0.2,2,0.3,3c0.1,1,0.2,2,0.4,3c0.2,1,0.3,1.9,0.5,2.7c0.6-0.9,1.1-1.9,1.6-2.9c0.5-1,1-2,1.4-3c0.4-1,0.8-2,1.1-2.9     c0.3-0.9,0.6-1.8,0.8-2.6H88.1z"/>
		</g>
	</g>
</g>
</svg>
